<svg width="56" height="68" viewBox="0 0 56 68" fill="none" xmlns="http://www.w3.org/2000/svg">
<path d="M46.9999 18.5212C47.0013 20.0919 46.7506 21.6561 46.2542 23.1751C45.7691 24.665 45.0587 26.1014 44.1389 27.4522C43.6244 28.2025 43.0432 28.9219 42.3999 29.6049C42.3749 29.6398 42.3565 29.6593 42.3506 29.6721L42.3448 29.6768C41.8437 30.2084 41.3085 30.7186 40.7412 31.2052C39.9367 31.8936 39.0668 32.5306 38.1394 33.1104C38.1394 33.1104 31.4668 36.9657 23.4632 36.9657L22.1498 36.9704L16.5323 37V24.54H24.0184C25.0042 24.5465 25.9808 24.3874 26.886 24.0731C27.7785 23.7681 28.5904 23.3288 29.278 22.7788C29.9638 22.2237 30.5085 21.5663 30.8816 20.8434C31.2742 20.1104 31.4716 19.3193 31.461 18.5212C31.4643 18.1165 31.4166 17.7126 31.3188 17.3157C31.3156 17.3111 31.3136 17.3061 31.313 17.3009C31.2198 16.919 31.0752 16.5463 30.8816 16.1896C30.1234 14.7346 28.6866 13.5767 26.8794 12.9646C25.9767 12.65 25.0021 12.4912 24.0184 12.4984H16.5323C16.5312 9.18402 14.8945 6.00564 11.9818 3.66196C9.06921 1.31828 5.11916 0.00112549 1 5.55353e-05H24.0184C26.0834 -0.00405075 28.1395 0.219576 30.1291 0.664696C32.047 1.09523 33.8875 1.72408 35.6045 2.53551C36.2215 2.82814 36.8193 3.14566 37.3995 3.48337L37.448 3.50758C40.0465 5.02504 42.226 6.95943 43.8488 9.18867C44.8561 10.5725 45.6376 12.055 46.1739 13.5997C46.7267 15.2022 47.0046 16.8581 46.9999 18.5212Z" fill="url(#paint0_linear_1_23)"/>
<path d="M55.9999 48.5212C56.0015 50.0919 55.7018 51.6561 55.1083 53.1751C54.5283 54.665 53.6789 56.1014 52.5792 57.4522C51.964 58.2025 51.2691 58.9219 50.4999 59.6049C50.4699 59.6398 50.448 59.6593 50.441 59.6721L50.434 59.6768C49.8349 60.2084 49.1949 60.7186 48.5167 61.2052C47.5547 61.8936 46.5146 62.5306 45.4058 63.1104C45.4058 63.1104 37.4277 66.9657 27.8582 66.9657L26.2878 66.9704L19.5712 67V54.54H28.522C29.7006 54.5465 30.8684 54.3874 31.9507 54.0731C33.0177 53.7681 33.9885 53.3288 34.8107 52.7788C35.6307 52.2237 36.2819 51.5663 36.728 50.8434C37.1974 50.1104 37.4334 49.3193 37.4207 48.5212C37.4247 48.1165 37.3677 47.7126 37.2508 47.3157C37.2469 47.3111 37.2446 47.3061 37.2438 47.3009C37.1324 46.919 36.9595 46.5463 36.728 46.1896C35.8215 44.7346 34.1035 43.5767 31.9427 42.9646C30.8634 42.65 29.6981 42.4912 28.522 42.4984H19.5712C19.5699 39.184 17.6129 36.0056 14.1304 33.662C10.648 31.3183 5.92508 30.0011 1 30.0001H28.522C30.9911 29.9959 33.4494 30.2196 35.8283 30.6647C38.1215 31.0952 40.3221 31.7241 42.3749 32.5355C43.1126 32.8281 43.8274 33.1457 44.5211 33.4834L44.5791 33.5076C47.6861 35.025 50.2919 36.9594 52.2323 39.1887C53.4367 40.5725 54.371 42.055 55.0123 43.5997C55.6733 45.2022 56.0055 46.8581 55.9999 48.5212Z" fill="url(#paint1_linear_1_23)"/>
<path d="M18.579 18.579V67.179H0.000976562V0C4.92786 0.00159051 9.65247 1.95956 13.1362 5.44348C16.62 8.9274 18.5777 13.6521 18.579 18.579Z" fill="url(#paint2_linear_1_23)"/>
<g style="mix-blend-mode:multiply" opacity="0.16">
<g style="mix-blend-mode:multiply" opacity="0.16">
<path d="M18.579 18.579C18.5777 13.6521 16.62 8.9274 13.1362 5.44348C9.65247 1.95956 4.92786 0.00159051 0.000976562 0H16.824C20.578 3.511 24.185 9.264 25.077 18.579H18.579Z" fill="black"/>
</g>
</g>
<g style="mix-blend-mode:screen" opacity="0.7">
<g style="mix-blend-mode:screen" opacity="0.7">
<path d="M0.774964 33.595C0.767964 35.695 0.759972 37.795 0.745972 39.857C0.731972 41.919 0.700956 43.957 0.678956 45.927C0.627956 49.865 0.545963 53.538 0.442963 56.687C0.258963 62.987 0.000976562 67.182 0.000976562 67.182V0C0.000976562 0 0.258963 4.2 0.442963 10.495C0.542963 13.645 0.627956 17.317 0.678956 21.256C0.700956 23.225 0.745972 25.261 0.745972 27.326C0.745972 29.391 0.765964 31.493 0.774964 33.595Z" fill="white"/>
</g>
</g>
<g style="mix-blend-mode:screen" opacity="0.7">
<g style="mix-blend-mode:screen" opacity="0.7">
<path d="M18.579 18.579V67.179C18.579 67.179 18.513 65.963 18.439 63.838C18.365 61.713 18.239 58.668 18.159 55.025C18.059 51.381 17.982 47.125 17.93 42.568C17.908 40.289 17.886 37.936 17.864 35.539C17.842 33.142 17.849 30.716 17.842 28.289C17.835 25.862 17.856 23.421 17.871 21.032C17.864 19.844 17.901 18.632 17.864 17.514C17.8119 16.4015 17.6539 15.2965 17.392 14.214C16.8963 12.1491 16.0478 10.1853 14.884 8.40898C12.9216 5.43331 10.1508 3.07948 6.89701 1.62398C5.7417 1.1055 4.53506 0.709991 3.297 0.443977C2.49567 0.27147 1.68544 0.143274 0.869996 0.0599766C0.301996 0.0229766 0 0.000976562 0 0.000976562C4.92688 0.00256707 9.65149 1.96053 13.1352 5.44446C16.619 8.92838 18.5767 13.6531 18.578 18.58L18.579 18.579Z" fill="white"/>
</g>
</g>
<defs>
<linearGradient id="paint0_linear_1_23" x1="46.31" y1="18.5" x2="7.21" y2="18.5" gradientUnits="userSpaceOnUse">
<stop stop-color="#C3B537"/>
<stop offset="1" stop-color="#00FFA3"/>
</linearGradient>
<linearGradient id="paint1_linear_1_23" x1="46" y1="61" x2="8" y2="38" gradientUnits="userSpaceOnUse">
<stop stop-color="#C0AE05"/>
<stop offset="1" stop-color="#00FFA3"/>
</linearGradient>
<linearGradient id="paint2_linear_1_23" x1="9.28998" y1="2.14973" x2="9.28998" y2="67.3134" gradientUnits="userSpaceOnUse">
<stop offset="0.514191" stop-color="#FCE300"/>
<stop offset="1" stop-color="#F86800"/>
</linearGradient>
</defs>
</svg>
